{
    "asset" : {
        "generator" : "Khronos glTF Blender I/O v1.1.46",
        "version" : "2.0"
    },
    "scene" : 0,
    "scenes" : [
        {
            "name" : "Scene",
            "nodes" : [
                0
            ]
        }
    ],
    "nodes" : [
        {
            "mesh" : 0,
            "name" : "Cone.001",
            "rotation" : [
                0,
                -0.2504787743091583,
                0,
                0.9681220650672913
            ],
            "scale" : [
                0.9341275095939636,
                0.6353011727333069,
                0.9341275095939636
            ],
            "translation" : [
                0,
                2.6721012592315674,
                0
            ]
        }
    ],
    "meshes" : [
        {
            "name" : "Cone.001",
            "primitives" : [
                {
                    "attributes" : {
                        "POSITION" : 0,
                        "NORMAL" : 1,
                        "TEXCOORD_0" : 2
                    },
                    "indices" : 3
                }
            ]
        }
    ],
    "accessors" : [
        {
            "bufferView" : 0,
            "componentType" : 5126,
            "count" : 172,
            "max" : [
                1.2474178075790405,
                1,
                1.2474178075790405
            ],
            "min" : [
                -1.24741792678833,
                -4.251271724700928,
                -1.2474178075790405
            ],
            "type" : "VEC3"
        },
        {
            "bufferView" : 1,
            "componentType" : 5126,
            "count" : 172,
            "type" : "VEC3"
        },
        {
            "bufferView" : 2,
            "componentType" : 5126,
            "count" : 172,
            "type" : "VEC2"
        },
        {
            "bufferView" : 3,
            "componentType" : 5123,
            "count" : 204,
            "type" : "SCALAR"
        }
    ],
    "bufferViews" : [
        {
            "buffer" : 0,
            "byteLength" : 2064,
            "byteOffset" : 0
        },
        {
            "buffer" : 0,
            "byteLength" : 2064,
            "byteOffset" : 2064
        },
        {
            "buffer" : 0,
            "byteLength" : 1376,
            "byteOffset" : 4128
        },
        {
            "buffer" : 0,
            "byteLength" : 408,
            "byteOffset" : 5504
        }
    ],
    "buffers" : [
        {
            "byteLength" : 5912,
            "uri" : "pineTree.bin"
        }
    ]
}
